<svg version="1.1" xmlns="http://www.w3.org/2000/svg" width="100%" viewBox="0 0 360 360" xml:space="preserve">
    <rect x="20" y="20" width="320" height="320" rx="20" ry="20" fill="white" stroke="#f1f1f1" stroke-width="15" />
    <path fill="#00BFFF" stroke="none" d="M180,80 C140,80 110,110 110,150 L145,150 C145,130 160,115 180,115 C200,115 215,130 215,150 C215,170 205,180 190,195 C175,210 165,225 165,250 L200,250 C200,235 205,225 215,215 C230,200 250,180 250,150 C250,110 220,80 180,80 Z M165,275 L165,310 L200,310 L200,275 L165,275 Z" />
</svg>
