<svg version="1.1" id="Layer_1" xmlns="http://www.w3.org/2000/svg"
     width="100%" viewBox="0 0 360 360" xml:space="preserve">
  
  <path fill="#000000" stroke="none"
		  d="M84.000862,170.999161 
        C84.000862,170.999161 84.013702,171.014450 83.391571,170.564926 
        C81.322281,170.050385 79.268143,169.168259 77.181190,169.082260 
        C65.468376,168.599533 57.155468,173.888123 50.774414,183.683136 
        C45.089008,192.410324 46.024242,209.454971 53.329857,216.614502 
        C64.685143,227.742737 75.829178,239.086182 87.122208,250.278442 
        C96.303093,259.377380 106.009476,267.990448 114.683464,277.544708 
        C124.306206,288.144012 143.323807,290.851196 155.325851,276.975555 
        C157.931107,273.963593 160.704590,271.084747 163.542572,268.288727 
        C173.121353,258.851624 182.853531,249.568756 192.356445,240.056488 
        C201.382721,231.021301 210.102081,221.679626 219.123413,212.639374 
        C231.508163,200.228653 244.104004,188.028748 256.507538,175.636520 
        C265.875610,166.276962 275.003937,156.677155 284.388092,147.334045 
        C292.353638,139.403320 300.630524,131.784271 308.552948,123.811989 
        C310.729889,121.621353 312.818970,118.884628 313.763672,116.009262 
        C317.448456,104.794136 315.951233,94.974594 307.010162,85.996704 
        C297.612946,76.560829 283.589508,73.050674 272.811615,80.938316 
        C264.218262,87.227264 256.988556,95.424248 249.373154,102.995201 
        C234.874344,117.409378 220.612930,132.062683 206.085846,146.447952 
        C200.259689,152.217239 193.807617,157.354706 187.985855,163.128082 
        C183.469315,167.607101 179.690689,172.824829 175.231476,177.368149 
        C163.929260,188.883545 152.450531,200.226288 140.997864,211.593201 
        C135.678238,216.872955 133.237167,216.377487 127.915062,210.854538 
        C116.259415,198.758957 104.380585,186.871552 92.330215,175.169647 
        C90.201851,173.102814 86.799721,172.347702 84.000862,170.999161 z"/>
</svg>
